<svg xmlns="http://www.w3.org/2000/svg" version="1.1" xmlns:xlink="http://www.w3.org/1999/xlink" xmlns:svgjs="http://svgjs.dev/svgjs" width="100%" height="100%" viewBox="0 0 1000 600"><rect width="1000" height="600" x="0" y="0" fill="#f0f0f0"/><g><circle r="166.66666666666666" cx="381.20498148600257" cy="403.4272184962432" fill="#273440" transform="matrix(0.5826464667385112,0,0,0.5826464667385112,0,64.94455233244037)"/><path d="M304.74441029275073 478.4272097070664L304.74441029275073 384.1790291171014Q304.74441029275073 377.34026156828605 303.83861326641755 373.6717836116368Q302.95546116574275 370.0033056549875 300.82683815385985 366.5839218805798L300.82683815385985 366.5839218805798L312.5569096448742 362.00964689759735Q314.5270181771488 364.1382699094803 315.9083586423069 367.80674786612957Q317.28969910746497 371.4752258227789 317.44821358707327 375.86834140049467L317.44821358707327 375.86834140049467Q322.181003049664 369.34660281089594 328.95183582150435 365.6101900772717Q335.7226685933447 361.85113241798905 344.35038526916804 361.85113241798905L344.35038526916804 361.85113241798905Q360.65473174316486 361.85113241798905 369.87121648610474 373.1735952471535Q379.0877012290446 384.51870300197635 379.0877012290446 402.92902756219775L379.0877012290446 402.92902756219775Q379.0877012290446 421.6790260072941 369.87121648610474 432.9335540594836Q360.65473174316486 444.18808211167305 343.3766534658599 444.18808211167305L343.3766534658599 444.18808211167305Q335.38299470846977 444.18808211167305 329.04241552413765 440.7686983372654Q322.6791914141472 437.3493145628577 318.44459031603975 431.3031194120839L318.44459031603975 431.3031194120839L318.44459031603975 478.4272097070664L304.74441029275073 478.4272097070664ZM341.9047332980685 432.7750395798753Q353.97447867395783 432.7750395798753 359.61306516288175 424.6228663428769Q365.2290067261473 416.47069310587847 365.2290067261473 402.92902756219775L365.2290067261473 402.92902756219775Q365.2290067261473 390.0667097882669 359.61306516288175 381.6654423690269Q353.97447867395783 373.2641749497869 342.56143614216006 373.2641749497869L342.56143614216006 373.2641749497869Q335.06596574925317 373.2641749497869 329.6085386655959 376.84207320380284Q324.1511115819386 380.4426163834771 321.20727124635584 386.46616660859263Q318.2634309107731 392.51236175936646 318.2634309107731 399.5096437877901L318.2634309107731 399.5096437877901L318.2634309107731 406.3710562622637Q318.2634309107731 413.0513093314708 321.04875676674754 419.16543925921957Q323.8114376970637 425.2795691869684 329.20093000374595 429.01598192059265Q334.5677773847699 432.7750395798753 341.9047332980685 432.7750395798753L341.9047332980685 432.7750395798753ZM414.9572634718376 442.5576474642734L414.9572634718376 340.4969675221849L382.348570523844 340.4969675221849L382.348570523844 328.4272221462956L461.58316540233693 328.4272221462956L461.58316540233693 340.4969675221849L428.97447245434324 340.4969675221849L428.97447245434324 442.5576474642734L414.9572634718376 442.5576474642734Z " fill="#f0f0f0" transform="matrix(0.5826464667385112,0,0,0.5826464667385112,0,64.94455233244037)"/><path d="M634.9828390704029 478.4272100274987L634.9828390704029 387.5406213230452Q634.9828390704029 380.9457751460281 634.1093495105331 377.4081424285554Q633.25769718966 373.87050971108266 631.2049967239659 370.5730866225742L631.2049967239659 370.5730866225742L642.51668652428 366.16196434523164Q644.4165263169969 368.2146648109257 645.7485978957982 371.7522975283984Q647.0806694745997 375.2899302458711 647.2335301475769 379.5263546112397L647.2335301475769 379.5263546112397Q651.7975130978966 373.2372297801771 658.3268475579234 369.63408534571414Q664.8561820179502 366.0091036722544 673.1761700757102 366.0091036722544L673.1761700757102 366.0091036722544Q688.8989821533668 366.0091036722544 697.7867384250421 376.927723170627Q706.6744946967174 387.86817990799636 706.6744946967174 405.6218552123502L706.6744946967174 405.6218552123502Q706.6744946967174 423.7030891016552 697.7867384250421 434.5561968830376Q688.8989821533668 445.40930466441995 672.2371687988502 445.40930466441995L672.2371687988502 445.40930466441995Q664.5286234329992 445.40930466441995 658.4141965139105 442.11188157591147Q652.2779323558251 438.81445848740293 648.1943686634338 432.98391567527193L648.1943686634338 432.98391567527193L648.1943686634338 478.4272100274987L634.9828390704029 478.4272100274987ZM670.8177482640617 434.4033362100604Q682.456996649327 434.4033362100604 687.8944691595166 426.5419301712321Q693.3101044307093 418.68052413240383 693.3101044307093 405.6218552123502L693.3101044307093 405.6218552123502Q693.3101044307093 393.21830346219895 687.8944691595166 385.11668779440646Q682.456996649327 377.015072126614 671.4510281949674 377.015072126614L671.4510281949674 377.015072126614Q664.2229020870448 377.015072126614 658.9601274888291 380.46535588809974Q653.6973528906135 383.93747688858224 650.8585118210367 389.74618246171644Q648.0196707514598 395.57672527384744 648.0196707514598 402.32443212384163L648.0196707514598 402.32443212384163L648.0196707514598 408.94111553985545Q648.0196707514598 415.3831010438953 650.7056511480594 421.2791555730165Q653.3697943056624 427.1752101021377 658.5670571868877 430.77835453660066Q663.7424828291164 434.4033362100604 670.8177482640617 434.4033362100604L670.8177482640617 434.4033362100604ZM750.2179492562273 445.40930466441995Q739.8452607327733 445.40930466441995 732.3114132788962 440.2993907391816Q724.7557285860224 435.1894768139432 720.8250255666082 426.3890694982549Q716.8943225471942 417.58866218256657 716.8943225471942 406.40799581623304L716.8943225471942 406.40799581623304Q716.8943225471942 394.9434453429418 720.9123745225952 385.74996772531205Q724.9085892589997 376.5346528686856 732.6171346248507 371.27187827047Q740.3256799907017 366.0091036722544 751.1787877720842 366.0091036722544L751.1787877720842 366.0091036722544Q766.7269019377668 366.0091036722544 775.2215879075006 378.58735333437966L775.2215879075006 378.58735333437966L775.2215879075006 367.58138488002004L788.1273961545771 367.58138488002004L788.1273961545771 424.18350835958364Q788.1273961545771 435.1894768139432 791.73054058904 440.9981823870774L791.73054058904 440.9981823870774L780.8774328076577 445.40930466441995Q777.1214277002175 440.84532171410024 776.4881477693118 432.1977750713891L776.4881477693118 432.1977750713891L776.0077285113834 432.0449143984119Q766.4211805918123 445.40930466441995 750.2179492562273 445.40930466441995L750.2179492562273 445.40930466441995ZM751.964928375967 434.4033362100604Q763.1237575033038 434.4033362100604 769.1726727054022 427.24072181912794Q775.2215879075006 420.0999446671923 775.2215879075006 409.09397621283273L775.2215879075006 409.09397621283273L775.2215879075006 402.4772927968189Q775.2215879075006 396.1881679657563 772.6229564668879 390.37946239262203Q770.046162265272 384.5707568194878 764.8488993840467 380.7929144730509Q759.6516365028212 377.015072126614 752.2706497219215 377.015072126614L752.2706497219215 377.015072126614Q741.5704026135163 377.015072126614 735.9145577133593 385.11668779440646Q730.2587128132022 393.21830346219895 730.2587128132022 406.40799581623304L730.2587128132022 406.40799581623304Q730.2587128132022 419.16094339033225 735.8490459963689 426.7821398001963Q741.417541940539 434.4033362100604 751.964928375967 434.4033362100604L751.964928375967 434.4033362100604ZM904.6290662022127 445.40930466441995Q899.5846639939646 436.7617580217089 899.5846639939646 426.6947908442093L899.5846639939646 426.6947908442093L899.5846639939646 396.5157265507075Q899.5846639939646 386.4487593732079 896.4401015784333 381.8192647058979Q893.2955391629021 377.1679327995912 885.2812724510964 377.1679327995912L885.2812724510964 377.1679327995912Q876.9612843933364 377.1679327995912 872.462813160007 382.9111266557352Q867.9861791656742 388.6543205118792 867.9861791656742 397.6075885005447L867.9861791656742 397.6075885005447L867.9861791656742 443.8370234566543L855.1022081575945 443.8370234566543L855.1022081575945 396.5157265507075Q855.1022081575945 387.2348999770907 851.5645754401219 382.21233500783933Q848.0269427226492 377.1679327995912 840.6241187027524 377.1679327995912L840.6241187027524 377.1679327995912Q831.9765720600415 377.1679327995912 827.2597284367444 383.93747688858224Q822.5428848134475 390.6851837385765 822.5428848134475 401.2325701740044L822.5428848134475 401.2325701740044L822.5428848134475 443.8370234566543L809.3531924594133 443.8370234566543L809.3531924594133 386.75448071916236Q809.3531924594133 381.0986358190053 808.5670518555305 377.4954913845424Q807.7809112516477 373.87050971108266 805.8810714589308 370.5730866225742L805.8810714589308 370.5730866225742L817.6731805171733 366.0091036722544Q819.2454617249389 368.84794474183127 820.271811957786 371.8178092453886Q821.2981621906331 374.8095109879427 821.6038835365875 379.067772592308L821.6038835365875 379.067772592308Q824.7484459521188 372.9315084342226 830.4916398082628 369.4593874337401Q836.2348336644068 366.0091036722544 842.8296798414237 366.0091036722544L842.8296798414237 366.0091036722544Q857.3077692962659 366.0091036722544 862.9636141964229 380.3124952151225L862.9636141964229 380.3124952151225Q866.5667586308857 373.3900904531543 872.8558834619485 369.69959706270436Q879.145008293011 366.0091036722544 887.1811122438132 366.0091036722544L887.1811122438132 366.0091036722544Q900.2179439248703 366.0091036722544 906.5070687559328 373.56478836512827Q912.7961935869955 381.0986358190053 912.7961935869955 394.00444406608176L912.7961935869955 394.00444406608176L912.7961935869955 426.6947908442093Q912.7961935869955 434.5561968830376 916.4211752604551 440.692461041123L916.4211752604551 440.692461041123L904.6290662022127 445.40930466441995ZM934.349548476783 478.4272100274987L934.349548476783 387.5406213230452Q934.349548476783 380.9457751460281 933.4760589169132 377.4081424285554Q932.6025693570432 373.87050971108266 930.571706130346 370.5730866225742L930.571706130346 370.5730866225742L941.8833959306601 366.16196434523164Q943.783235723377 368.2146648109257 945.1153073021783 371.7522975283984Q946.4473788809798 375.2899302458711 946.600239553957 379.5263546112397L946.600239553957 379.5263546112397Q951.1642225042767 373.2372297801771 957.6935569643035 369.63408534571414Q964.2228914243303 366.0091036722544 972.5428794820903 366.0091036722544L972.5428794820903 366.0091036722544Q988.265691559747 366.0091036722544 997.153447831422 376.927723170627Q1006.0412041030975 387.86817990799636 1006.0412041030975 405.6218552123502L1006.0412041030975 405.6218552123502Q1006.0412041030975 423.7030891016552 997.153447831422 434.5561968830376Q988.265691559747 445.40930466441995 971.6038782052303 445.40930466441995L971.6038782052303 445.40930466441995Q963.8953328393793 445.40930466441995 957.7590686812937 442.11188157591147Q951.6446417622051 438.81445848740293 947.5392408308171 432.98391567527193L947.5392408308171 432.98391567527193L947.5392408308171 478.4272100274987L934.349548476783 478.4272100274987ZM970.1844576704418 434.4033362100604Q981.8237060557071 434.4033362100604 987.2393413268999 426.5419301712321Q992.6768138370894 418.68052413240383 992.6768138370894 405.6218552123502L992.6768138370894 405.6218552123502Q992.6768138370894 393.21830346219895 987.2393413268999 385.11668779440646Q981.8237060557071 377.015072126614 970.8177376013473 377.015072126614L970.8177376013473 377.015072126614Q963.5896114934249 377.015072126614 958.3268368952092 380.46535588809974Q953.0422250579968 383.93747688858224 950.2252212274168 389.74618246171644Q947.3863801578398 395.57672527384744 947.3863801578398 402.32443212384163L947.3863801578398 402.32443212384163L947.3863801578398 408.94111553985545Q947.3863801578398 415.3831010438953 950.0723605544395 421.2791555730165Q952.7365037120423 427.1752101021377 957.9337665932678 430.77835453660066Q963.1091922354963 434.4033362100604 970.1844576704418 434.4033362100604L970.1844576704418 434.4033362100604ZM1049.5846586626074 445.40930466441995Q1039.2119701391534 445.40930466441995 1031.6562854462795 440.2993907391816Q1024.1224379924024 435.1894768139432 1020.1917349729883 426.3890694982549Q1016.2610319535743 417.58866218256657 1016.2610319535743 406.40799581623304L1016.2610319535743 406.40799581623304Q1016.2610319535743 394.9434453429418 1020.2572466899785 385.74996772531205Q1024.2752986653798 376.5346528686856 1031.9838440312308 371.27187827047Q1039.6923893970818 366.0091036722544 1050.5236599394675 366.0091036722544L1050.5236599394675 366.0091036722544Q1066.0936113441467 366.0091036722544 1074.5882973138807 378.58735333437966L1074.5882973138807 378.58735333437966L1074.5882973138807 367.58138488002004L1087.4722683219604 367.58138488002004L1087.4722683219604 424.18350835958364Q1087.4722683219604 435.1894768139432 1091.09724999542 440.9981823870774L1091.09724999542 440.9981823870774L1080.2441422140375 445.40930466441995Q1076.4662998676006 440.84532171410024 1075.854857175692 432.1977750713891L1075.854857175692 432.1977750713891L1075.3744379177635 432.0449143984119Q1065.7878899981924 445.40930466441995 1049.5846586626074 445.40930466441995L1049.5846586626074 445.40930466441995ZM1051.3098005433503 434.4033362100604Q1062.4904669096838 434.4033362100604 1068.5393821117823 427.24072181912794Q1074.5882973138807 420.0999446671923 1074.5882973138807 409.09397621283273L1074.5882973138807 409.09397621283273L1074.5882973138807 402.4772927968189Q1074.5882973138807 396.1881679657563 1071.989665873268 390.37946239262203Q1069.3910344326553 384.5707568194878 1064.2156087904266 380.7929144730509Q1059.0183459092013 377.015072126614 1051.6373591283013 377.015072126614L1051.6373591283013 377.015072126614Q1040.9371120198962 377.015072126614 1035.2812671197394 385.11668779440646Q1029.6254222195823 393.21830346219895 1029.6254222195823 406.40799581623304L1029.6254222195823 406.40799581623304Q1029.6254222195823 419.16094339033225 1035.1939181637522 426.7821398001963Q1040.784251346919 434.4033362100604 1051.3098005433503 434.4033362100604L1051.3098005433503 434.4033362100604ZM1135.1211238128583 443.8370234566543L1135.1211238128583 345.4165872983237L1103.6754996575453 345.4165872983237L1103.6754996575453 333.7773389130585L1180.0839989071567 333.7773389130585L1180.0839989071567 345.4165872983237L1148.6383747518437 345.4165872983237L1148.6383747518437 443.8370234566543L1135.1211238128583 443.8370234566543ZM1204.7819162124756 351.07243219848067Q1200.6765152810874 351.07243219848067 1197.8595114505074 348.32094008489076Q1195.0206703809304 345.5694479713009 1195.0206703809304 341.63874495188674L1195.0206703809304 341.63874495188674Q1195.0206703809304 337.7080419324726 1197.8595114505074 334.9565498188827Q1200.6765152810874 332.20505770529286 1204.7819162124756 332.20505770529286L1204.7819162124756 332.20505770529286Q1208.8654799048668 332.20505770529286 1211.682483735447 334.9565498188827Q1214.521324805024 337.7080419324726 1214.521324805024 341.63874495188674L1214.521324805024 341.63874495188674Q1214.521324805024 345.5694479713009 1211.682483735447 348.32094008489076Q1208.8654799048668 351.07243219848067 1204.7819162124756 351.07243219848067L1204.7819162124756 351.07243219848067ZM1198.0123721234845 443.8370234566543L1198.0123721234845 367.58138488002004L1211.2239017165155 367.58138488002004L1211.2239017165155 443.8370234566543L1198.0123721234845 443.8370234566543ZM1270.3373076807047 445.40930466441995Q1252.1032131184224 445.40930466441995 1241.5558266829944 434.7964065120018Q1231.0302774865634 424.18350835958364 1231.0302774865634 405.79655312432413L1231.0302774865634 405.79655312432413Q1231.0302774865634 393.67688548113057 1235.7471211098602 384.72361749246505Q1240.4639647331574 375.74851226480274 1249.1988603318555 370.8788079685286Q1257.9119186915568 366.0091036722544 1269.3983064038448 366.0091036722544L1269.3983064038448 366.0091036722544Q1276.932153857722 366.0091036722544 1284.0947682486544 368.5203861568801Q1291.2573826395865 371.0316686415058 1295.6466676779323 375.2899302458711L1295.6466676779323 375.2899302458711L1290.624102708681 384.72361749246505Q1287.1519817081985 381.4261944039565 1281.5834857640284 379.2861449822755Q1275.9931525808615 377.1679327995912 1269.8568884227761 377.1679327995912L1269.8568884227761 377.1679327995912Q1258.064779364534 377.1679327995912 1251.3170725145396 384.5707568194878Q1244.5475284255485 391.9517436003877 1244.5475284255485 405.79655312432413L1244.5475284255485 405.79655312432413Q1244.5475284255485 419.3138040633094 1251.557282143504 426.7821398001963Q1258.5451986224623 434.25047553708316 1270.9705876116104 434.25047553708316L1270.9705876116104 434.25047553708316Q1276.4735718387901 434.25047553708316 1281.6489974810188 432.35063574436634Q1286.8462603622443 430.47263319064626 1290.2965441237297 426.84765151718653L1290.2965441237297 426.84765151718653L1297.8522288166037 434.7090575560148Q1293.1353851933068 439.60059909128574 1285.6670494564198 442.5049518778529Q1278.1987137195329 445.40930466441995 1270.3373076807047 445.40930466441995L1270.3373076807047 445.40930466441995ZM1314.361181498143 443.8370234566543L1314.361181498143 328.4272153588559L1327.572711091174 328.4272153588559L1327.572711091174 394.31016541203616L1356.1794941769103 367.58138488002004L1373.0160054434007 367.58138488002004L1335.281256457025 402.4772927968189L1378.038570412652 443.8370234566543L1360.896337800207 443.8370234566543L1327.572711091174 411.29953735150394L1327.572711091174 443.8370234566543L1314.361181498143 443.8370234566543ZM1412.4758963105191 445.40930466441995Q1400.836647925254 445.40930466441995 1392.3419619555202 440.5396003681458Q1383.8472759857864 435.6698960718716 1379.3706419914536 426.7821398001963Q1374.8940079971208 417.894383528521 1374.8940079971208 406.2551351432558L1374.8940079971208 406.2551351432558Q1374.8940079971208 388.96004185783363 1383.694415312809 377.4954913845424Q1392.4948226284973 366.0091036722544 1410.4231958448252 366.0091036722544L1410.4231958448252 366.0091036722544Q1422.8485848339733 366.0091036722544 1430.8628515457788 371.8178092453886Q1438.8771182575842 377.6483520575196 1442.5020999310439 386.2085497442437Q1446.1270816045035 394.7905846699646 1446.1270816045035 403.5909919856529L1446.1270816045035 403.5909919856529Q1446.1270816045035 411.45239802448117 1437.1519763768413 411.45239802448117L1437.1519763768413 411.45239802448117L1388.2583982631288 411.45239802448117Q1388.2583982631288 421.82508654793514 1394.7003837671687 428.02686242301075Q1401.1423692712083 434.25047553708316 1412.4758963105191 434.25047553708316L1412.4758963105191 434.25047553708316Q1425.8402865765274 434.25047553708316 1434.4878332192384 426.3890694982549L1434.4878332192384 426.3890694982549L1441.4102379812066 434.09761486410594Q1436.3658357729585 439.4259011793118 1428.8319883190816 442.41760292186586Q1421.2763036262077 445.40930466441995 1412.4758963105191 445.40930466441995L1412.4758963105191 445.40930466441995ZM1388.2583982631288 400.5992902430988L1432.9155520114728 400.5992902430988Q1432.9155520114728 390.53232306559926 1427.0194974823517 383.784616215605Q1421.1234429532306 377.015072126614 1410.4231958448252 377.015072126614L1410.4231958448252 377.015072126614Q1403.1950697369025 377.015072126614 1398.1725047676512 380.46535588809974Q1393.128102559403 383.93747688858224 1390.7041690307642 389.35311215977504Q1388.2583982631288 394.7905846699646 1388.2583982631288 400.5992902430988L1388.2583982631288 400.5992902430988ZM1487.6178356983196 445.40930466441995Q1477.7255664327938 445.40930466441995 1472.92137385351 439.99366939322715Q1468.1390185132227 434.5561968830376 1468.1390185132227 424.4892297055381L1468.1390185132227 424.4892297055381L1468.1390185132227 378.58735333437966L1454.7746282472149 378.58735333437966L1457.5916320777949 367.58138488002004L1468.2918791862 367.58138488002004L1468.2918791862 348.2335911289038L1481.0229895213024 342.42488555576955L1481.0229895213024 367.58138488002004L1500.6765046183732 367.58138488002004L1498.01236146077 378.58735333437966L1481.328710867257 378.58735333437966L1481.328710867257 424.663927617512Q1481.328710867257 430.1669118446918 1483.1412017039868 432.35063574436634Q1484.9536925407165 434.5561968830376 1489.6705361640136 434.5561968830376L1489.6705361640136 434.5561968830376Q1494.693101133265 434.5561968830376 1498.4709434797019 432.67819432931753L1498.4709434797019 432.67819432931753L1501.7683665682102 442.5704635948431Q1499.4099447565618 443.6841627836771 1495.3263810641706 444.5358151045502Q1491.242817371779 445.40930466441995 1487.6178356983196 445.40930466441995L1487.6178356983196 445.40930466441995Z " fill="#273440" transform="matrix(0.5826464667385112,0,0,0.5826464667385112,0,64.94455233244037)"/></g></svg>